<svg id="Layer_1" data-name="Layer 1" xmlns="http://www.w3.org/2000/svg" viewBox="0 0 372.62 499.36"><defs><style>.cls-1{fill:#006b99;}</style></defs><title>Artboard 2</title><path class="cls-1" d="M340.62,220.43,186.31,0,32,220.43c-63.88,91.25-28.55,219.09,74,262.64a206.26,206.26,0,0,0,160.68,0C369.17,439.52,404.49,311.68,340.62,220.43Zm-46.35-27.35v57.29l-27.73-23.53-.12-33.76ZM278.58,414.63H208.83l.13-58.2s.68-9.62-10.37-9.62H169c-9.34,0-8.34,9.62-8.34,9.62l-.1,58.39-71.25.08c-6.17,0-5.92-6.32-5.92-6.32V299.13L187.77,211.7l98.29,87.43V406.76S286.41,414.63,278.58,414.63Zm18.31-124.25L188.63,193.31,73.17,291C53.85,307.32,45,291,45,291L188.63,164.47l139,125.91S319.26,306.51,296.89,290.38Z"/></svg>