<?xml version="1.0" encoding="utf-8"?>
<!-- Generator: Adobe Illustrator 18.0.0, SVG Export Plug-In . SVG Version: 6.00 Build 0)  -->
<!DOCTYPE svg PUBLIC "-//W3C//DTD SVG 1.1//EN" "http://www.w3.org/Graphics/SVG/1.1/DTD/svg11.dtd">
<svg version="1.1" id="Слой_2" xmlns="http://www.w3.org/2000/svg" xmlns:xlink="http://www.w3.org/1999/xlink" x="0px" y="0px"
	 viewBox="0 394 1590 410.4" enable-background="new 0 394 1590 410.4" xml:space="preserve">
<path fill="#b9e2f5"    d="M1562.2,664l-63.6,8.6v7.3l-22.5-2l-51,6.6V717
	l-6.6-0.7V589.5h-18.6v-8.3l-15.2-11.3v-44.4l-16.6-26.5h-12.6l-9.3,3.3l-17.9,25.8V717c0,0,0,0-7.3,0s-25.2-5.3-35.8-2.6
	c-10.6,2.6-21.9,4.6-34.4,5.3c-12.6,0.7-29.8-0.7-29.8-0.7s1.3-204,0-211.3s-21.2-4-21.2-4s-57.6,11.9-66.2,14.6
	c-8.6,2.7-6.6,7.3-6.6,7.3v78.2l-21.9,1.3l-21.9,11.9l-5.3-3.8l-2-6.8l-15.2-0.7V458c0,0-8.6-5.3-13.2-8.6
	c-4.6-3.3-27.2-4.6-27.2-4.6s-39.1,12.6-45.7,19.2s-7.3,11.9-7.3,11.9v79.5h-16.6l-19.2,21.6v100.4L895,678v-9.3l-19.9-2v-85.5
	l-58.3-1.3v27.8l-18.6,1.3v142.4h-27.2v-25.2V487.1l-15.9-17.9V454l-9.9-16.6l-15.2-0.7l-4-7.3v-7.3l-4,1.3v-6h-21.9v5.3H697v5.3
	l-4.6,6l-17.2,2l-9.3,13.2v16.6l-19.9,19.2v-78.8c0,0-40.4-4.6-59.6-4c-19.2,0.7-20.5,13.2-20.5,13.2V668l-11.3-2v-6l-7.3-6.6
	l-19.2-1.3V522.2l-11.9-12.6l-8.6-0.4V503v-44.4h4.6v-2h-4.6v-45.1l-1.3,45.1h-6v2h5.8l-1.3,44.4h-46.9v4.2l-21.2-0.9v141.1l-33.1-2
	v-20.5l-23.2-11.8h-8.6V607h-15.2v6.1h-19.2v11.1l-34.5-30.5l-24.5-10.6v-50.3l-10.6-63.6l-45.7-2l-4.6-13.9h-31.1v61l-18.6,57.6
	v27.2l-5.3-9.5l-17.2,60.6v32.5h-25.2v19.9l-17.2,0.7l0.7-86.1l-31.1-11.3L0,606.4v198.1h1590V668L1562.2,664z"/>
</svg>
